<svg width="154" height="37" viewBox="0 0 154 37" fill="none" xmlns="http://www.w3.org/2000/svg">
<path d="M17.3398 26.8711H24.1758C24.0846 28.8503 23.5508 30.5951 22.5742 32.1055C21.5977 33.6159 20.2435 34.7943 18.5117 35.6406C16.793 36.474 14.7617 36.8906 12.418 36.8906C10.5169 36.8906 8.81771 36.5716 7.32031 35.9336C5.83594 35.2956 4.57292 34.3776 3.53125 33.1797C2.5026 31.9818 1.71484 30.5299 1.16797 28.8242C0.634115 27.1185 0.367188 25.1979 0.367188 23.0625V21.5195C0.367188 19.3841 0.647135 17.4635 1.20703 15.7578C1.77995 14.0391 2.58724 12.5807 3.62891 11.3828C4.68359 10.1719 5.94661 9.2474 7.41797 8.60938C8.88932 7.97135 10.5234 7.65234 12.3203 7.65234C14.7943 7.65234 16.8841 8.09505 18.5898 8.98047C20.2956 9.86589 21.6172 11.0833 22.5547 12.6328C23.4922 14.1693 24.0456 15.9206 24.2148 17.8867H17.3789C17.3529 16.819 17.1706 15.9271 16.832 15.2109C16.4935 14.4818 15.9596 13.9349 15.2305 13.5703C14.5013 13.2057 13.5312 13.0234 12.3203 13.0234C11.474 13.0234 10.7383 13.1797 10.1133 13.4922C9.48828 13.8047 8.96745 14.2995 8.55078 14.9766C8.13411 15.6536 7.82161 16.5326 7.61328 17.6133C7.41797 18.681 7.32031 19.9701 7.32031 21.4805V23.0625C7.32031 24.5729 7.41146 25.862 7.59375 26.9297C7.77604 27.9974 8.06901 28.8698 8.47266 29.5469C8.8763 30.224 9.39714 30.7253 10.0352 31.0508C10.6862 31.3633 11.4805 31.5195 12.418 31.5195C13.4596 31.5195 14.3385 31.3568 15.0547 31.0312C15.7708 30.6927 16.3242 30.1849 16.7148 29.5078C17.1055 28.8177 17.3138 27.9388 17.3398 26.8711ZM34.7031 8.0625V36.5H27.8672V8.0625H34.7031ZM59.0977 31.2266V36.5H43.9414V31.2266H59.0977ZM46.3828 8.0625V36.5H39.5273V8.0625H46.3828ZM57.1445 19.3516V24.4492H43.9414V19.3516H57.1445ZM59.1562 8.0625V13.3555H43.9414V8.0625H59.1562ZM51.832 0.445312L58.2383 5.93359V6.1875H53.0625L49.9375 3.53125L46.8516 6.1875H41.7734V5.85547L48.0625 0.445312H51.832ZM85.6602 8.0625V36.5H78.8242L68.7656 18.8047V36.5H61.9102V8.0625H68.7656L78.8242 25.7578V8.0625H85.6602ZM106.168 26.8711H113.004C112.913 28.8503 112.379 30.5951 111.402 32.1055C110.426 33.6159 109.072 34.7943 107.34 35.6406C105.621 36.474 103.59 36.8906 101.246 36.8906C99.3451 36.8906 97.6458 36.5716 96.1484 35.9336C94.6641 35.2956 93.401 34.3776 92.3594 33.1797C91.3307 31.9818 90.543 30.5299 89.9961 28.8242C89.4622 27.1185 89.1953 25.1979 89.1953 23.0625V21.5195C89.1953 19.3841 89.4753 17.4635 90.0352 15.7578C90.6081 14.0391 91.4154 12.5807 92.457 11.3828C93.5117 10.1719 94.7747 9.2474 96.2461 8.60938C97.7174 7.97135 99.3516 7.65234 101.148 7.65234C103.622 7.65234 105.712 8.09505 107.418 8.98047C109.124 9.86589 110.445 11.0833 111.383 12.6328C112.32 14.1693 112.874 15.9206 113.043 17.8867H106.207C106.181 16.819 105.999 15.9271 105.66 15.2109C105.322 14.4818 104.788 13.9349 104.059 13.5703C103.329 13.2057 102.359 13.0234 101.148 13.0234C100.302 13.0234 99.5664 13.1797 98.9414 13.4922C98.3164 13.8047 97.7956 14.2995 97.3789 14.9766C96.9622 15.6536 96.6497 16.5326 96.4414 17.6133C96.2461 18.681 96.1484 19.9701 96.1484 21.4805V23.0625C96.1484 24.5729 96.2396 25.862 96.4219 26.9297C96.6042 27.9974 96.8971 28.8698 97.3008 29.5469C97.7044 30.224 98.2253 30.7253 98.8633 31.0508C99.5143 31.3633 100.309 31.5195 101.246 31.5195C102.288 31.5195 103.167 31.3568 103.883 31.0312C104.599 30.6927 105.152 30.1849 105.543 29.5078C105.934 28.8177 106.142 27.9388 106.168 26.8711ZM123.531 8.0625V36.5H116.695V8.0625H123.531Z" fill="black"/>
<path d="M140.406 14.0391L133.473 36.5H126.109L136.559 8.0625H141.227L140.406 14.0391ZM146.148 36.5L139.195 14.0391L138.297 8.0625H143.023L153.531 36.5H146.148ZM145.875 25.8945V31.1875H131.285V25.8945H145.875Z" fill="#FEDF01"/>
</svg>
